<svg width="183" height="234" viewBox="0 0 183 234" fill="none" xmlns="http://www.w3.org/2000/svg">
<path d="M182.45 189.81L167.28 204.98" stroke="#4D4D4D" stroke-miterlimit="10"/>
<path d="M182.45 204.98L167.28 189.81" stroke="#4D4D4D" stroke-miterlimit="10"/>
<path d="M77.8995 164.73L62.7295 179.9" stroke="#4D4D4D" stroke-miterlimit="10"/>
<path d="M77.8995 179.9L62.7295 164.73" stroke="#4D4D4D" stroke-miterlimit="10"/>
<path d="M42.0122 160.361C43.3536 154.679 39.8357 148.986 34.1545 147.645C28.4733 146.303 22.7802 149.821 21.4387 155.503C20.0973 161.184 23.6153 166.877 29.2965 168.218C34.9777 169.56 40.6707 166.042 42.0122 160.361Z" stroke="#4D4D4D" stroke-miterlimit="10" stroke-dasharray="5 5"/>
<path d="M175.49 30.14L70.3096 135.31" stroke="#4D4D4D" stroke-miterlimit="10"/>
<path d="M150.45 1L119.49 31.96" stroke="#4D4D4D" stroke-miterlimit="10"/>
<path d="M177.76 96.16L122.1 151.82" stroke="#4D4D4D" stroke-miterlimit="10"/>
<path d="M139.059 77.95L99.2295 117.79" stroke="#4D4D4D" stroke-miterlimit="10"/>
<path d="M147 208.73L111.96 243.76" stroke="#4D4D4D" stroke-miterlimit="10"/>
<path d="M147 243.76L111.96 208.73" stroke="#4D4D4D" stroke-miterlimit="10"/>
<path d="M33.9397 290.07C62.5149 290.07 85.6797 266.905 85.6797 238.33C85.6797 209.755 62.5149 186.59 33.9397 186.59C5.36449 186.59 -17.8003 209.755 -17.8003 238.33C-17.8003 266.905 5.36449 290.07 33.9397 290.07Z" stroke="#4D4D4D" stroke-miterlimit="10" stroke-dasharray="5 5"/>
</svg>
