<svg width="102" height="100" viewBox="0 0 102 100" fill="none" xmlns="http://www.w3.org/2000/svg">
<path d="M8.65997 3.86C7.59997 3.86 6.72998 3 6.72998 1.93C6.72998 0.87 7.58997 0 8.65997 0C9.72997 0 10.59 0.86 10.59 1.93C10.59 2.99 9.71997 3.86 8.65997 3.86Z" fill="#0B315E"/>
<path d="M26.8001 3.86C25.7401 3.86 24.8701 3 24.8701 1.93C24.8701 0.87 25.7301 0 26.8001 0C27.8601 0 28.7301 0.86 28.7301 1.93C28.7201 2.99 27.8601 3.86 26.8001 3.86Z" fill="#0B315E"/>
<path d="M44.93 3.86C43.87 3.86 43 3 43 1.93C43 0.87 43.86 0 44.93 0C45.99 0 46.86 0.86 46.86 1.93C46.86 2.99 46 3.86 44.93 3.86Z" fill="#0B315E"/>
<path d="M63.0702 3.86C62.0102 3.86 61.1401 3 61.1401 1.93C61.1401 0.87 62.0002 0 63.0702 0C64.1302 0 65.0002 0.86 65.0002 1.93C65.0002 2.99 64.1302 3.86 63.0702 3.86Z" fill="#0B315E"/>
<path d="M81.2001 3.86C80.1401 3.86 79.27 3 79.27 1.93C79.27 0.87 80.1301 0 81.2001 0C82.2601 0 83.1301 0.86 83.1301 1.93C83.1301 2.99 82.2701 3.86 81.2001 3.86Z" fill="#0B315E"/>
<path d="M99.3401 3.86C98.2801 3.86 97.4102 3 97.4102 1.93C97.4102 0.87 98.2701 0 99.3401 0C100.41 0 101.27 0.86 101.27 1.93C101.27 2.99 100.4 3.86 99.3401 3.86Z" fill="#0B315E"/>
<path d="M8.65997 20.4C7.59997 20.4 6.72998 19.54 6.72998 18.47C6.72998 17.41 7.58997 16.54 8.65997 16.54C9.72997 16.54 10.59 17.4 10.59 18.47C10.59 19.53 9.71997 20.4 8.65997 20.4Z" fill="#0B315E"/>
<path d="M26.8001 20.4C25.7401 20.4 24.8701 19.54 24.8701 18.47C24.8701 17.41 25.7301 16.54 26.8001 16.54C27.8601 16.54 28.7301 17.4 28.7301 18.47C28.7201 19.53 27.8601 20.4 26.8001 20.4Z" fill="#0B315E"/>
<path d="M44.93 20.4C43.87 20.4 43 19.54 43 18.47C43 17.41 43.86 16.54 44.93 16.54C45.99 16.54 46.86 17.4 46.86 18.47C46.86 19.53 46 20.4 44.93 20.4Z" fill="#0B315E"/>
<path d="M63.0702 20.4C62.0102 20.4 61.1401 19.54 61.1401 18.47C61.1401 17.41 62.0002 16.54 63.0702 16.54C64.1302 16.54 65.0002 17.4 65.0002 18.47C65.0002 19.53 64.1302 20.4 63.0702 20.4Z" fill="#0B315E"/>
<path d="M81.2001 20.4C80.1401 20.4 79.27 19.54 79.27 18.47C79.27 17.41 80.1301 16.54 81.2001 16.54C82.2601 16.54 83.1301 17.4 83.1301 18.47C83.1301 19.53 82.2701 20.4 81.2001 20.4Z" fill="#0B315E"/>
<path d="M99.3401 20.4C98.2801 20.4 97.4102 19.54 97.4102 18.47C97.4102 17.41 98.2701 16.54 99.3401 16.54C100.41 16.54 101.27 17.4 101.27 18.47C101.27 19.53 100.4 20.4 99.3401 20.4Z" fill="#0B315E"/>
<path d="M8.65997 36.9301C7.59997 36.9301 6.72998 36.0701 6.72998 35.0001C6.72998 33.9401 7.58997 33.0701 8.65997 33.0701C9.72997 33.0701 10.59 33.9301 10.59 35.0001C10.59 36.0701 9.71997 36.9301 8.65997 36.9301Z" fill="#0B315E"/>
<path d="M26.8001 36.9301C25.7401 36.9301 24.8701 36.0701 24.8701 35.0001C24.8701 33.9401 25.7301 33.0701 26.8001 33.0701C27.8601 33.0701 28.7301 33.9301 28.7301 35.0001C28.7201 36.0701 27.8601 36.9301 26.8001 36.9301Z" fill="#0B315E"/>
<path d="M44.93 36.9301C43.87 36.9301 43 36.0701 43 35.0001C43 33.9401 43.86 33.0701 44.93 33.0701C45.99 33.0701 46.86 33.9301 46.86 35.0001C46.86 36.0701 46 36.9301 44.93 36.9301Z" fill="#0B315E"/>
<path d="M63.0702 36.9301C62.0102 36.9301 61.1401 36.0701 61.1401 35.0001C61.1401 33.9401 62.0002 33.0701 63.0702 33.0701C64.1302 33.0701 65.0002 33.9301 65.0002 35.0001C65.0002 36.0701 64.1302 36.9301 63.0702 36.9301Z" fill="#0B315E"/>
<path d="M81.2001 36.9301C80.1401 36.9301 79.27 36.0701 79.27 35.0001C79.27 33.9401 80.1301 33.0701 81.2001 33.0701C82.2601 33.0701 83.1301 33.9301 83.1301 35.0001C83.1301 36.0701 82.2701 36.9301 81.2001 36.9301Z" fill="#0B315E"/>
<path d="M99.3401 36.9301C98.2801 36.9301 97.4102 36.0701 97.4102 35.0001C97.4102 33.9401 98.2701 33.0701 99.3401 33.0701C100.41 33.0701 101.27 33.9301 101.27 35.0001C101.27 36.0701 100.4 36.9301 99.3401 36.9301Z" fill="#0B315E"/>
<path d="M8.65997 53.4701C7.59997 53.4701 6.72998 52.6101 6.72998 51.5401C6.72998 50.4801 7.58997 49.6101 8.65997 49.6101C9.72997 49.6101 10.59 50.4701 10.59 51.5401C10.59 52.6001 9.71997 53.4701 8.65997 53.4701Z" fill="#0B315E"/>
<path d="M26.8001 53.4701C25.7401 53.4701 24.8701 52.6101 24.8701 51.5401C24.8701 50.4801 25.7301 49.6101 26.8001 49.6101C27.8601 49.6101 28.7301 50.4701 28.7301 51.5401C28.7201 52.6001 27.8601 53.4701 26.8001 53.4701Z" fill="#0B315E"/>
<path d="M44.93 53.4701C43.87 53.4701 43 52.6101 43 51.5401C43 50.4801 43.86 49.6101 44.93 49.6101C45.99 49.6101 46.86 50.4701 46.86 51.5401C46.86 52.6001 46 53.4701 44.93 53.4701Z" fill="#0B315E"/>
<path d="M63.0702 53.4701C62.0102 53.4701 61.1401 52.6101 61.1401 51.5401C61.1401 50.4801 62.0002 49.6101 63.0702 49.6101C64.1302 49.6101 65.0002 50.4701 65.0002 51.5401C65.0002 52.6001 64.1302 53.4701 63.0702 53.4701Z" fill="#0B315E"/>
<path d="M81.2001 53.4701C80.1401 53.4701 79.27 52.6101 79.27 51.5401C79.27 50.4801 80.1301 49.6101 81.2001 49.6101C82.2601 49.6101 83.1301 50.4701 83.1301 51.5401C83.1301 52.6001 82.2701 53.4701 81.2001 53.4701Z" fill="#0B315E"/>
<path d="M99.3401 53.4701C98.2801 53.4701 97.4102 52.6101 97.4102 51.5401C97.4102 50.4801 98.2701 49.6101 99.3401 49.6101C100.41 49.6101 101.27 50.4701 101.27 51.5401C101.27 52.6001 100.4 53.4701 99.3401 53.4701Z" fill="#0B315E"/>
<path d="M8.65997 70.0099C7.59997 70.0099 6.72998 69.1499 6.72998 68.0799C6.72998 67.0199 7.58997 66.1499 8.65997 66.1499C9.72997 66.1499 10.59 67.0099 10.59 68.0799C10.59 69.1399 9.71997 70.0099 8.65997 70.0099Z" fill="#0B315E"/>
<path d="M26.8001 70.0099C25.7401 70.0099 24.8701 69.1499 24.8701 68.0799C24.8701 67.0199 25.7301 66.1499 26.8001 66.1499C27.8601 66.1499 28.7301 67.0099 28.7301 68.0799C28.7201 69.1399 27.8601 70.0099 26.8001 70.0099Z" fill="#0B315E"/>
<path d="M44.93 70.0099C43.87 70.0099 43 69.1499 43 68.0799C43 67.0199 43.86 66.1499 44.93 66.1499C45.99 66.1499 46.86 67.0099 46.86 68.0799C46.86 69.1399 46 70.0099 44.93 70.0099Z" fill="#0B315E"/>
<path d="M63.0702 70.0099C62.0102 70.0099 61.1401 69.1499 61.1401 68.0799C61.1401 67.0199 62.0002 66.1499 63.0702 66.1499C64.1302 66.1499 65.0002 67.0099 65.0002 68.0799C65.0002 69.1399 64.1302 70.0099 63.0702 70.0099Z" fill="#0B315E"/>
<path d="M81.2001 70.0099C80.1401 70.0099 79.27 69.1499 79.27 68.0799C79.27 67.0199 80.1301 66.1499 81.2001 66.1499C82.2601 66.1499 83.1301 67.0099 83.1301 68.0799C83.1301 69.1399 82.2701 70.0099 81.2001 70.0099Z" fill="#0B315E"/>
<path d="M99.3401 70.0099C98.2801 70.0099 97.4102 69.1499 97.4102 68.0799C97.4102 67.0199 98.2701 66.1499 99.3401 66.1499C100.41 66.1499 101.27 67.0099 101.27 68.0799C101.27 69.1399 100.4 70.0099 99.3401 70.0099Z" fill="#0B315E"/>
<path d="M8.65997 86.5399C7.59997 86.5399 6.72998 85.6799 6.72998 84.6099C6.72998 83.5499 7.58997 82.6799 8.65997 82.6799C9.72997 82.6799 10.59 83.5399 10.59 84.6099C10.59 85.6799 9.71997 86.5399 8.65997 86.5399Z" fill="#0B315E"/>
<path d="M26.8001 86.5399C25.7401 86.5399 24.8701 85.6799 24.8701 84.6099C24.8701 83.5499 25.7301 82.6799 26.8001 82.6799C27.8601 82.6799 28.7301 83.5399 28.7301 84.6099C28.7201 85.6799 27.8601 86.5399 26.8001 86.5399Z" fill="#0B315E"/>
<path d="M44.93 86.5399C43.87 86.5399 43 85.6799 43 84.6099C43 83.5499 43.86 82.6799 44.93 82.6799C45.99 82.6799 46.86 83.5399 46.86 84.6099C46.86 85.6799 46 86.5399 44.93 86.5399Z" fill="#0B315E"/>
<path d="M63.0702 86.5399C62.0102 86.5399 61.1401 85.6799 61.1401 84.6099C61.1401 83.5499 62.0002 82.6799 63.0702 82.6799C64.1302 82.6799 65.0002 83.5399 65.0002 84.6099C65.0002 85.6799 64.1302 86.5399 63.0702 86.5399Z" fill="#0B315E"/>
<path d="M81.2001 86.5399C80.1401 86.5399 79.27 85.6799 79.27 84.6099C79.27 83.5499 80.1301 82.6799 81.2001 82.6799C82.2601 82.6799 83.1301 83.5399 83.1301 84.6099C83.1301 85.6799 82.2701 86.5399 81.2001 86.5399Z" fill="#0B315E"/>
<path d="M99.3401 86.5399C98.2801 86.5399 97.4102 85.6799 97.4102 84.6099C97.4102 83.5499 98.2701 82.6799 99.3401 82.6799C100.41 82.6799 101.27 83.5399 101.27 84.6099C101.27 85.6799 100.4 86.5399 99.3401 86.5399Z" fill="#0B315E"/>
<path d="M85.05 99.51L0 14.46H85.05V99.51Z" fill="#FF9D00"/>
</svg>
