<svg width="162" height="87" viewBox="0 0 162 87" fill="none" xmlns="http://www.w3.org/2000/svg">
<path d="M117.4 75.15C122.99 75.15 127.53 70.62 127.53 65.02C127.53 59.43 123 54.89 117.4 54.89C111.81 54.89 107.27 59.42 107.27 65.02C107.27 70.62 111.8 75.15 117.4 75.15ZM117.4 60.27C120.03 60.27 122.16 62.4 122.16 65.03C122.16 67.66 120.03 69.79 117.4 69.79C114.77 69.79 112.64 67.66 112.64 65.03C112.64 62.4 114.77 60.27 117.4 60.27Z" fill="#114A82"/>
<path d="M151.24 75.15C156.83 75.15 161.37 70.62 161.37 65.02C161.37 59.43 156.84 54.89 151.24 54.89C145.65 54.89 141.11 59.42 141.11 65.02C141.11 70.62 145.65 75.15 151.24 75.15ZM151.24 60.27C153.87 60.27 156 62.4 156 65.03C156 67.66 153.87 69.79 151.24 69.79C148.61 69.79 146.48 67.66 146.48 65.03C146.49 62.4 148.61 60.27 151.24 60.27Z" fill="#FFC200"/>
<path d="M85.38 86.1901C85.38 39.0401 47.16 0.810059 0 0.810059V34.33C28.64 34.33 51.86 57.5501 51.86 86.1901H85.38Z" fill="#FF9D00"/>
</svg>
