<svg width="130" height="30" viewBox="0 0 130 30" fill="none" xmlns="http://www.w3.org/2000/svg">
<path fill-rule="evenodd" clip-rule="evenodd" d="M5 27.5C5 26.1193 3.88071 25 2.5 25C1.11929 25 0 26.1193 0 27.5C0 28.8807 1.11929 30 2.5 30C3.88071 30 5 28.8807 5 27.5ZM30 27.5C30 26.1193 28.8807 25 27.5 25C26.1193 25 25 26.1193 25 27.5C25 28.8807 26.1193 30 27.5 30C28.8807 30 30 28.8807 30 27.5ZM52.5 25C53.8807 25 55 26.1193 55 27.5C55 28.8807 53.8807 30 52.5 30C51.1193 30 50 28.8807 50 27.5C50 26.1193 51.1193 25 52.5 25ZM80 27.5C80 26.1193 78.8807 25 77.5 25C76.1193 25 75 26.1193 75 27.5C75 28.8807 76.1193 30 77.5 30C78.8807 30 80 28.8807 80 27.5ZM102.5 25C103.881 25 105 26.1193 105 27.5C105 28.8807 103.881 30 102.5 30C101.119 30 100 28.8807 100 27.5C100 26.1193 101.119 25 102.5 25ZM130 27.5C130 26.1193 128.881 25 127.5 25C126.119 25 125 26.1193 125 27.5C125 28.8807 126.119 30 127.5 30C128.881 30 130 28.8807 130 27.5ZM2.5 0C3.88071 0 5 1.11929 5 2.5C5 3.88071 3.88071 5 2.5 5C1.11929 5 0 3.88071 0 2.5C0 1.11929 1.11929 0 2.5 0ZM30 2.5C30 1.11929 28.8807 0 27.5 0C26.1193 0 25 1.11929 25 2.5C25 3.88071 26.1193 5 27.5 5C28.8807 5 30 3.88071 30 2.5ZM52.5 0C53.8807 0 55 1.11929 55 2.5C55 3.88071 53.8807 5 52.5 5C51.1193 5 50 3.88071 50 2.5C50 1.11929 51.1193 0 52.5 0ZM80 2.5C80 1.11929 78.8807 0 77.5 0C76.1193 0 75 1.11929 75 2.5C75 3.88071 76.1193 5 77.5 5C78.8807 5 80 3.88071 80 2.5ZM102.5 0C103.881 0 105 1.11929 105 2.5C105 3.88071 103.881 5 102.5 5C101.119 5 100 3.88071 100 2.5C100 1.11929 101.119 0 102.5 0ZM130 2.5C130 1.11929 128.881 0 127.5 0C126.119 0 125 1.11929 125 2.5C125 3.88071 126.119 5 127.5 5C128.881 5 130 3.88071 130 2.5Z" fill="white"/>
</svg>
