<?xml version="1.0" standalone="no"?>
<svg xmlns:xlink="http://www.w3.org/1999/xlink" id="wave" style="transform:rotate(0deg); transition: 0.3s" viewBox="0 0 1440 490" version="1.1" xmlns="http://www.w3.org/2000/svg"><defs><linearGradient id="sw-gradient-0" x1="0" x2="0" y1="1" y2="0"><stop stop-color="rgba(230.325, 230.325, 230.325, 1)" offset="0%"/><stop stop-color="rgba(255, 255, 255, 1)" offset="100%"/></linearGradient></defs><path style="transform:translate(0, 0px); opacity:1" fill="url(#sw-gradient-0)" d="M0,294L60,302.2C120,310,240,327,360,351.2C480,376,600,408,720,383.8C840,359,960,278,1080,220.5C1200,163,1320,131,1440,147C1560,163,1680,229,1800,277.7C1920,327,2040,359,2160,383.8C2280,408,2400,425,2520,367.5C2640,310,2760,180,2880,163.3C3000,147,3120,245,3240,253.2C3360,261,3480,180,3600,179.7C3720,180,3840,261,3960,318.5C4080,376,4200,408,4320,351.2C4440,294,4560,147,4680,81.7C4800,16,4920,33,5040,106.2C5160,180,5280,310,5400,375.7C5520,441,5640,441,5760,400.2C5880,359,6000,278,6120,245C6240,212,6360,229,6480,236.8C6600,245,6720,245,6840,228.7C6960,212,7080,180,7200,171.5C7320,163,7440,180,7560,204.2C7680,229,7800,261,7920,302.2C8040,343,8160,392,8280,367.5C8400,343,8520,245,8580,196L8640,147L8640,490L8580,490C8520,490,8400,490,8280,490C8160,490,8040,490,7920,490C7800,490,7680,490,7560,490C7440,490,7320,490,7200,490C7080,490,6960,490,6840,490C6720,490,6600,490,6480,490C6360,490,6240,490,6120,490C6000,490,5880,490,5760,490C5640,490,5520,490,5400,490C5280,490,5160,490,5040,490C4920,490,4800,490,4680,490C4560,490,4440,490,4320,490C4200,490,4080,490,3960,490C3840,490,3720,490,3600,490C3480,490,3360,490,3240,490C3120,490,3000,490,2880,490C2760,490,2640,490,2520,490C2400,490,2280,490,2160,490C2040,490,1920,490,1800,490C1680,490,1560,490,1440,490C1320,490,1200,490,1080,490C960,490,840,490,720,490C600,490,480,490,360,490C240,490,120,490,60,490L0,490Z"/></svg>